# xmcd
#
# Track frame offsets:
#	150
#	18996
#	37301
#	52005
#	70616
#	90014
#	106181
#	122953
#	139988
#	161716
#	180562
#	198867
#	213571
#	232182
#	251580
#	267747
#	284519
#	301554
#
# Disc length: 4310 seconds
#
# Revision: 1
# Processed by: cddbd v1.5.2PL0 Copyright (c) Steve Scherf et al.
# Submitted via: audiograbber 1.83.01
#
DISCID=0810d412
DTITLE=PHM21103-02 - phm21103-02
DYEAR=2011
DGENRE=Country
TTITLE0=Kenny Chesney - Somewhere With You
TTITLE1=Carrie Underwood - Mamma's Song
TTITLE2=Blake Shelton - Who Are You When I'm Not Looking
TTITLE3=Reba McEntire - If I Were A Boy
TTITLE4=Brad Paisley - Anything Like Me
TTITLE5=LeAnn Rimes - Crazy Women
TTITLE6=Rhonda Vincent - Taken
TTITLE7=Carolyn Dawn Johnson - Whole Thing, The
TTITLE8=Keith Urban - Long Hot Summer
TTITLE9=Kenny Chesney - Somewhere With You (vocals)
TTITLE10=Carrie Underwood - Mamma's Song (vocals)
TTITLE11=Blake Shelton - Who Are You When I'm Not Looking (vocals)
TTITLE12=Reba McEntire - If I Were A Boy (vocals)
TTITLE13=Brad Paisley - Anything Like Me (vocals)
TTITLE14=LeAnn Rimes - Crazy Women (vocals)
TTITLE15=Rhonda Vincent - Taken (vocals)
TTITLE16=Carolyn Dawn Johnson - Whole Thing, The (vocals)
TTITLE17=Keith Urban - Long Hot Summer (vocals)
EXTD=
EXTT0=
EXTT1=
EXTT2=
EXTT3=
EXTT4=
EXTT5=
EXTT6=
EXTT7=
EXTT8=
EXTT9=
EXTT10=
EXTT11=
EXTT12=
EXTT13=
EXTT14=
EXTT15=
EXTT16=
EXTT17=
PLAYORDER=
